<svg width="53" height="21" viewBox="0 0 53 21" fill="none" xmlns="http://www.w3.org/2000/svg">
<path d="M29 1C29 0.447715 29.4477 0 30 0H49C49.5523 0 50 0.447715 50 1V14C50 14.5523 49.5523 15 49 15H30C29.4477 15 29 14.5523 29 14V1Z" fill="#FF9900"/>
<path d="M8.05824 3.27273V12H6.46449L2.66761 6.5071H2.60369V12H0.758523V3.27273H2.37784L6.14489 8.76136H6.22159V3.27273H8.05824ZM12.506 12.1278C11.8441 12.1278 11.2717 11.9872 10.7887 11.706C10.3086 11.4219 9.93786 11.027 9.67649 10.5213C9.41513 10.0128 9.28445 9.4233 9.28445 8.75284C9.28445 8.0767 9.41513 7.4858 9.67649 6.98011C9.93786 6.47159 10.3086 6.0767 10.7887 5.79545C11.2717 5.51136 11.8441 5.36932 12.506 5.36932C13.168 5.36932 13.739 5.51136 14.2191 5.79545C14.7021 6.0767 15.0742 6.47159 15.3356 6.98011C15.5969 7.4858 15.7276 8.0767 15.7276 8.75284C15.7276 9.4233 15.5969 10.0128 15.3356 10.5213C15.0742 11.027 14.7021 11.4219 14.2191 11.706C13.739 11.9872 13.168 12.1278 12.506 12.1278ZM12.5146 10.7216C12.8157 10.7216 13.0671 10.6364 13.2688 10.4659C13.4705 10.2926 13.6225 10.0568 13.7248 9.75852C13.8299 9.46023 13.8825 9.12074 13.8825 8.74006C13.8825 8.35938 13.8299 8.01989 13.7248 7.72159C13.6225 7.4233 13.4705 7.1875 13.2688 7.0142C13.0671 6.84091 12.8157 6.75426 12.5146 6.75426C12.2106 6.75426 11.9549 6.84091 11.7475 7.0142C11.543 7.1875 11.3881 7.4233 11.283 7.72159C11.1808 8.01989 11.1296 8.35938 11.1296 8.74006C11.1296 9.12074 11.1808 9.46023 11.283 9.75852C11.3881 10.0568 11.543 10.2926 11.7475 10.4659C11.9549 10.6364 12.2106 10.7216 12.5146 10.7216ZM20.3896 5.45455V6.81818H16.4478V5.45455H20.3896ZM17.3427 3.88636H19.158V9.98864C19.158 10.1562 19.1836 10.2869 19.2347 10.3807C19.2859 10.4716 19.3569 10.5355 19.4478 10.5724C19.5415 10.6094 19.6495 10.6278 19.7717 10.6278C19.8569 10.6278 19.9421 10.6207 20.0273 10.6065C20.1126 10.5895 20.1779 10.5767 20.2234 10.5682L20.5089 11.919C20.418 11.9474 20.2901 11.9801 20.1254 12.017C19.9606 12.0568 19.7603 12.081 19.5245 12.0895C19.087 12.1065 18.7035 12.0483 18.3739 11.9148C18.0472 11.7812 17.793 11.5739 17.6112 11.2926C17.4293 11.0114 17.3398 10.6562 17.3427 10.2273V3.88636ZM24.4847 12.1278C23.8114 12.1278 23.2319 11.9915 22.7461 11.7188C22.2631 11.4432 21.891 11.054 21.6296 10.5511C21.3683 10.0455 21.2376 9.44744 21.2376 8.7571C21.2376 8.08381 21.3683 7.4929 21.6296 6.98438C21.891 6.47585 22.2589 6.07955 22.7333 5.79545C23.2106 5.51136 23.7702 5.36932 24.4123 5.36932C24.8441 5.36932 25.2461 5.43892 25.6183 5.57812C25.9933 5.71449 26.32 5.92045 26.5984 6.19602C26.8796 6.47159 27.0984 6.81818 27.2546 7.2358C27.4109 7.65057 27.489 8.13636 27.489 8.69318V9.19176H21.962V8.06676H25.7802C25.7802 7.8054 25.7234 7.57386 25.6097 7.37216C25.4961 7.17045 25.3384 7.01278 25.1367 6.89915C24.9379 6.78267 24.7063 6.72443 24.4421 6.72443C24.1665 6.72443 23.9222 6.78835 23.7092 6.91619C23.4989 7.04119 23.3342 7.21023 23.2148 7.4233C23.0955 7.63352 23.0344 7.8679 23.0316 8.12642V9.19602C23.0316 9.51989 23.0913 9.79972 23.2106 10.0355C23.3327 10.2713 23.5046 10.4531 23.7262 10.581C23.9478 10.7088 24.2106 10.7727 24.5146 10.7727C24.7163 10.7727 24.9009 10.7443 25.0685 10.6875C25.2362 10.6307 25.3796 10.5455 25.4989 10.4318C25.6183 10.3182 25.7092 10.179 25.7717 10.0142L27.4506 10.125C27.3654 10.5284 27.1907 10.8807 26.9265 11.1818C26.6651 11.4801 26.3271 11.7131 25.9123 11.8807C25.5004 12.0455 25.0245 12.1278 24.4847 12.1278Z" fill="black"/>
<g filter="url(#filter0_d_4_6)">
<path d="M33.5398 3.27273V12H31.7244V3.27273H33.5398ZM36.8604 12.1236C36.4428 12.1236 36.0707 12.0511 35.744 11.9062C35.4173 11.7585 35.1587 11.5412 34.9684 11.2543C34.7809 10.9645 34.6871 10.6037 34.6871 10.1719C34.6871 9.80824 34.7539 9.50284 34.8874 9.25568C35.021 9.00852 35.2028 8.80966 35.4329 8.65909C35.663 8.50852 35.9244 8.39489 36.217 8.31818C36.5124 8.24148 36.8221 8.1875 37.146 8.15625C37.5266 8.11648 37.8335 8.07955 38.0664 8.04545C38.2994 8.00852 38.4684 7.95455 38.5735 7.88352C38.6786 7.8125 38.7312 7.70739 38.7312 7.56818V7.54261C38.7312 7.27273 38.646 7.06392 38.4755 6.91619C38.3079 6.76847 38.0692 6.6946 37.7596 6.6946C37.4329 6.6946 37.1729 6.76705 36.9798 6.91193C36.7866 7.05398 36.6587 7.23295 36.5962 7.44886L34.9173 7.3125C35.0025 6.91477 35.1701 6.57102 35.4201 6.28125C35.6701 5.98864 35.9925 5.7642 36.3874 5.60795C36.7852 5.44886 37.2454 5.36932 37.7681 5.36932C38.1317 5.36932 38.4798 5.41193 38.8121 5.49716C39.1474 5.58239 39.4442 5.71449 39.7028 5.89347C39.9641 6.07244 40.1701 6.30256 40.3207 6.58381C40.4712 6.86222 40.5465 7.19602 40.5465 7.58523V12H38.8249V11.0923H38.7738C38.6687 11.2969 38.5281 11.4773 38.3519 11.6335C38.1758 11.7869 37.9641 11.9077 37.717 11.9957C37.4698 12.081 37.1843 12.1236 36.8604 12.1236ZM37.3803 10.8707C37.6474 10.8707 37.8832 10.8182 38.0877 10.7131C38.2923 10.6051 38.4528 10.4602 38.5692 10.2784C38.6857 10.0966 38.744 9.89062 38.744 9.66051V8.96591C38.6871 9.00284 38.609 9.03693 38.5096 9.06818C38.413 9.09659 38.3036 9.12358 38.1815 9.14915C38.0593 9.17187 37.9371 9.19318 37.815 9.21307C37.6928 9.23011 37.582 9.24574 37.4826 9.25994C37.2695 9.29119 37.0835 9.34091 36.9244 9.40909C36.7653 9.47727 36.6417 9.5696 36.5536 9.68608C36.4656 9.79972 36.4215 9.94176 36.4215 10.1122C36.4215 10.3594 36.511 10.5483 36.69 10.679C36.8718 10.8068 37.1019 10.8707 37.3803 10.8707ZM41.989 12V3.27273H43.8043V6.55398H43.8597C43.9393 6.37784 44.0543 6.19886 44.2049 6.01705C44.3583 5.83239 44.5572 5.67898 44.8015 5.55682C45.0487 5.43182 45.3555 5.36932 45.7219 5.36932C46.1992 5.36932 46.6396 5.49432 47.043 5.74432C47.4464 5.99148 47.7688 6.36506 48.0103 6.86506C48.2518 7.36222 48.3725 7.9858 48.3725 8.7358C48.3725 9.46591 48.2546 10.0824 48.0188 10.5852C47.7859 11.0852 47.4677 11.4645 47.0643 11.723C46.6637 11.9787 46.2148 12.1065 45.7177 12.1065C45.3654 12.1065 45.0657 12.0483 44.8185 11.9318C44.5742 11.8153 44.3739 11.669 44.2177 11.4929C44.0614 11.3139 43.9421 11.1335 43.8597 10.9517H43.7788V12H41.989ZM43.766 8.72727C43.766 9.11648 43.82 9.45597 43.9279 9.74574C44.0359 10.0355 44.1921 10.2614 44.3967 10.4233C44.6012 10.5824 44.8498 10.6619 45.1424 10.6619C45.4379 10.6619 45.6879 10.581 45.8924 10.419C46.0969 10.2543 46.2518 10.027 46.3569 9.73722C46.4648 9.4446 46.5188 9.10795 46.5188 8.72727C46.5188 8.34943 46.4663 8.01705 46.3612 7.73011C46.256 7.44318 46.1012 7.21875 45.8967 7.05682C45.6921 6.89489 45.4407 6.81392 45.1424 6.81392C44.8469 6.81392 44.5969 6.89205 44.3924 7.0483C44.1907 7.20455 44.0359 7.42614 43.9279 7.71307C43.82 8 43.766 8.33807 43.766 8.72727Z" fill="black"/>
</g>
<defs>
<filter id="filter0_d_4_6" x="27.7244" y="3.27273" width="24.6481" height="16.8509" filterUnits="userSpaceOnUse" color-interpolation-filters="sRGB">
<feFlood flood-opacity="0" result="BackgroundImageFix"/>
<feColorMatrix in="SourceAlpha" type="matrix" values="0 0 0 0 0 0 0 0 0 0 0 0 0 0 0 0 0 0 127 0" result="hardAlpha"/>
<feOffset dy="4"/>
<feGaussianBlur stdDeviation="2"/>
<feComposite in2="hardAlpha" operator="out"/>
<feColorMatrix type="matrix" values="0 0 0 0 0 0 0 0 0 0 0 0 0 0 0 0 0 0 0.25 0"/>
<feBlend mode="normal" in2="BackgroundImageFix" result="effect1_dropShadow_4_6"/>
<feBlend mode="normal" in="SourceGraphic" in2="effect1_dropShadow_4_6" result="shape"/>
</filter>
</defs>
</svg>
